<svg xmlns="http://www.w3.org/2000/svg" viewBox="0 0 800 1000" role="img" aria-label="Pakistan Studies cover">
  <defs>
    <linearGradient id="bg" x1="0" x2="1" y1="0" y2="1">
      <stop offset="0%" stop-color="#0f766e"/>
      <stop offset="55%" stop-color="#0f172a"/>
      <stop offset="100%" stop-color="#14532d"/>
    </linearGradient>
    <linearGradient id="card" x1="0" x2="1" y1="0" y2="1">
      <stop offset="0%" stop-color="#ffffff" stop-opacity="0.16"/>
      <stop offset="100%" stop-color="#ffffff" stop-opacity="0.05"/>
    </linearGradient>
  </defs>
  <rect width="800" height="1000" fill="url(#bg)" rx="38"/>
  <rect x="48" y="48" width="704" height="904" rx="28" fill="none" stroke="#ffffff" stroke-opacity="0.18"/>
  <circle cx="400" cy="210" r="80" fill="#ffffff" fill-opacity="0.12"/>
  <path d="M400 155c22 0 40 18 40 40s-18 40-40 40-40-18-40-40 18-40 40-40Zm0 98c56 0 102 36 120 86H280c18-50 64-86 120-86Z" fill="#eafff9" fill-opacity="0.9"/>
  <rect x="112" y="385" width="576" height="420" rx="28" fill="url(#card)" stroke="#ffffff" stroke-opacity="0.16"/>
  <text x="112" y="120" font-family="Inter, Arial, sans-serif" font-size="28" fill="#bbf7d0" letter-spacing="7">AIOU SEMESTER 1</text>
  <text x="112" y="430" font-family="Inter, Arial, sans-serif" font-size="62" font-weight="800" fill="#ffffff">Pakistan</text>
  <text x="112" y="500" font-family="Inter, Arial, sans-serif" font-size="62" font-weight="800" fill="#ffffff">Studies</text>
  <text x="112" y="580" font-family="Inter, Arial, sans-serif" font-size="28" fill="#d1fae5">Internal study guide</text>
  <text x="112" y="638" font-family="Inter, Arial, sans-serif" font-size="24" fill="#ecfdf5">Ideology • History • Culture • Geography</text>
  <text x="112" y="680" font-family="Inter, Arial, sans-serif" font-size="24" fill="#ecfdf5">Politics • Economy • Society • Citizenship</text>
  <rect x="112" y="744" width="228" height="64" rx="16" fill="#dcfce7" fill-opacity="0.16" stroke="#bbf7d0" stroke-opacity="0.4"/>
  <text x="154" y="786" font-family="Inter, Arial, sans-serif" font-size="28" font-weight="700" fill="#f0fdf4">Course 9806</text>
  <text x="112" y="884" font-family="Inter, Arial, sans-serif" font-size="22" fill="#bbf7d0">Built into this website</text>
</svg>